<svg width="23" height="23" viewBox="0 0 23 23" fill="none" xmlns="http://www.w3.org/2000/svg">
<path d="M11.5 0C5.1513 0 0 5.1513 0 11.5C0 17.8487 5.1513 23 11.5 23C17.8362 23 23 17.8487 23 11.5C23 5.1513 17.8362 0 11.5 0ZM19.096 5.30098C20.468 6.97234 21.2912 9.1052 21.3162 11.4127C20.9919 11.3504 17.7489 10.6892 14.481 11.1009C14.4062 10.9387 14.3438 10.7641 14.269 10.5895C14.0694 10.1155 13.8449 9.62909 13.6204 9.16758C17.2375 7.6958 18.8839 5.57538 19.096 5.30098ZM11.5 1.69631C13.9946 1.69631 16.2771 2.63178 18.0109 4.16595C17.8362 4.4154 16.3519 6.39859 12.8595 7.70823C11.2505 4.75217 9.46694 2.33243 9.19252 1.95824C9.92838 1.78362 10.7018 1.69631 11.5 1.69631ZM7.32162 2.6193C7.58353 2.96855 9.32973 5.40076 10.9637 8.29445C6.37365 9.51682 2.31996 9.49188 1.88341 9.49188C2.51952 6.44848 4.57755 3.91648 7.32162 2.6193ZM1.67137 11.5125C1.67137 11.4127 1.67137 11.3129 1.67137 11.2131C2.09544 11.2256 6.86009 11.288 11.7619 9.81618C12.0488 10.365 12.3108 10.9262 12.5602 11.4875C12.4355 11.5249 12.2982 11.5624 12.1735 11.5998C7.10954 13.2337 4.4154 17.699 4.19089 18.0732C2.63178 16.3395 1.67137 14.032 1.67137 11.5125ZM11.5 21.3286C9.2299 21.3286 7.13449 20.5553 5.4756 19.2581C5.65022 18.8964 7.64585 15.0548 13.1838 13.1215C13.2088 13.109 13.2213 13.109 13.2462 13.0966C14.6307 16.6762 15.192 19.6822 15.3416 20.5428C14.1567 21.0542 12.8595 21.3286 11.5 21.3286ZM16.9756 19.6448C16.8758 19.0461 16.3519 16.1773 15.0672 12.6475C18.1481 12.161 20.8422 12.9593 21.179 13.0716C20.7549 15.8032 19.1833 18.1605 16.9756 19.6448Z" fill="white"/>
</svg>
