<svg width="43" height="43" viewBox="0 0 43 43" fill="none" xmlns="http://www.w3.org/2000/svg">
<path d="M21.5 2L26.2023 6.79774L31 11.5L26.2023 16.2023L21.5 21L16.7977 16.2023L12 11.5L16.7977 6.79774L21.5 2Z" fill="white" fill-opacity="0.2"/>
<path d="M21.4646 42.8033C20.4476 42.7944 19.4334 42.402 18.6574 41.626L1.67744 24.646C0.107524 23.0761 0.107519 20.5308 1.67744 18.9609L18.6574 1.9809C20.2273 0.410991 22.7727 0.410986 24.3426 1.9809L41.3226 18.9609C42.0985 19.7368 42.4909 20.7511 42.4998 21.768C42.5001 21.7917 42.5001 21.8153 42.4998 21.8389C42.4909 22.8559 42.0985 23.8701 41.3226 24.646L24.3426 41.626C23.5666 42.402 22.5524 42.7944 21.5354 42.8033C21.5118 42.8035 21.4882 42.8035 21.4646 42.8033ZM20.5525 3.87596L13.01 11.4184L21.5 19.9084L29.99 11.4184L22.4475 3.87596C21.9242 3.35265 21.0758 3.35265 20.5525 3.87596ZM23.3951 21.8035L31.885 30.2935L39.4275 22.751C39.9508 22.2277 39.9508 21.3792 39.4275 20.8559L31.885 13.3135L23.3951 21.8035ZM21.5 23.6985L13.01 32.1885L20.5525 39.731C21.0758 40.2543 21.9242 40.2543 22.4475 39.731L29.99 32.1885L21.5 23.6985ZM19.6049 21.8035L11.115 13.3135L3.57249 20.8559C3.04919 21.3792 3.04919 22.2277 3.57249 22.751L11.115 30.2935L19.6049 21.8035Z" fill="white"/>
</svg>
