<svg width="43" height="43" viewBox="0 0 43 43" fill="none" xmlns="http://www.w3.org/2000/svg">
<path opacity="0.2" d="M20.1875 9.99097L10.393 13.666C10.1771 13.7482 9.98645 13.8852 9.83973 14.0636C9.693 14.242 9.5953 14.4555 9.55625 14.6832L5.75 37.5535L28.6367 33.7472C28.8626 33.7087 29.0742 33.6109 29.25 33.4639C29.4259 33.317 29.5595 33.126 29.6375 32.9105L33.3125 23.116L20.1875 9.99097ZM19.5312 27.0535C18.8823 27.0535 18.2479 26.861 17.7083 26.5005C17.1687 26.1399 16.7481 25.6275 16.4998 25.0279C16.2514 24.4283 16.1864 23.7686 16.313 23.1321C16.4397 22.4956 16.7522 21.9109 17.2111 21.452C17.6699 20.9931 18.2546 20.6806 18.8911 20.554C19.5276 20.4274 20.1874 20.4924 20.7869 20.7407C21.3865 20.9891 21.899 21.4097 22.2595 21.9493C22.6201 22.4889 22.8125 23.1232 22.8125 23.7722C22.8082 24.6411 22.4611 25.4732 21.8467 26.0876C21.2323 26.7021 20.4002 27.0492 19.5312 27.0535Z" fill="white"/>
<path d="M19.5312 27.0535C21.3434 27.0535 22.8125 25.5844 22.8125 23.7722C22.8125 21.96 21.3434 20.491 19.5312 20.491C17.7191 20.491 16.25 21.96 16.25 23.7722C16.25 25.5844 17.7191 27.0535 19.5312 27.0535Z" stroke="white" stroke-width="3" stroke-linecap="round" stroke-linejoin="round"/>
<path d="M5.75 37.5537L17.218 26.0857" stroke="white" stroke-width="3" stroke-linecap="round" stroke-linejoin="round"/>
<path d="M5.75 37.5535L28.6367 33.7472C28.8626 33.7087 29.0742 33.6109 29.25 33.4639C29.4259 33.317 29.5595 33.126 29.6375 32.9105L33.3125 23.116L20.1875 9.99097L10.393 13.666C10.1771 13.7482 9.98645 13.8852 9.83973 14.0636C9.693 14.242 9.5953 14.4555 9.55625 14.6832L5.75 37.5535Z" stroke="white" stroke-width="3" stroke-linecap="round" stroke-linejoin="round"/>
<path d="M33.3125 23.1161L37.6273 18.8012C37.7514 18.6791 37.8498 18.5335 37.9171 18.373C37.9843 18.2124 38.0189 18.0401 38.0189 17.8661C38.0189 17.692 37.9843 17.5197 37.9171 17.3592C37.8498 17.1986 37.7514 17.053 37.6273 16.9309L26.3727 5.67622C26.2505 5.55221 26.105 5.45373 25.9444 5.38651C25.7839 5.31929 25.6116 5.28467 25.4375 5.28467C25.2634 5.28467 25.0911 5.31929 24.9306 5.38651C24.77 5.45373 24.6245 5.55221 24.5023 5.67622L20.1875 9.99107" stroke="white" stroke-width="3" stroke-linecap="round" stroke-linejoin="round"/>
</svg>
