<svg width="42" height="43" viewBox="0 0 42 43" fill="none" xmlns="http://www.w3.org/2000/svg">
<path opacity="0.2" d="M5.43047 13.0425C5.31159 13.2467 5.24929 13.4789 5.25001 13.7151V29.8917C5.25126 30.1254 5.31411 30.3546 5.4322 30.5562C5.5503 30.7578 5.71947 30.9247 5.92266 31.0401L20.3602 39.1612C20.5548 39.2724 20.7759 39.3291 21 39.3253L21.1477 21.8034L5.43047 13.0425Z" fill="white"/>
<path d="M36.75 29.8917V13.7151C36.7487 13.4815 36.6859 13.2523 36.5678 13.0506C36.4497 12.849 36.2805 12.6821 36.0773 12.5667L21.6398 4.44562C21.4453 4.3333 21.2246 4.27417 21 4.27417C20.7754 4.27417 20.5547 4.3333 20.3602 4.44562L5.92266 12.5667C5.71947 12.6821 5.55029 12.849 5.4322 13.0506C5.3141 13.2523 5.25125 13.4815 5.25 13.7151V29.8917C5.25125 30.1254 5.3141 30.3546 5.4322 30.5562C5.55029 30.7578 5.71947 30.9248 5.92266 31.0401L20.3602 39.1612C20.5547 39.2736 20.7754 39.3327 21 39.3327C21.2246 39.3327 21.4453 39.2736 21.6398 39.1612L36.0773 31.0401C36.2805 30.9248 36.4497 30.7578 36.5678 30.5562C36.6859 30.3546 36.7487 30.1254 36.75 29.8917Z" stroke="white" stroke-width="3" stroke-linecap="round" stroke-linejoin="round"/>
<path d="M36.5695 13.0425L21.1477 21.8034L5.43048 13.0425" stroke="white" stroke-width="3" stroke-linecap="round" stroke-linejoin="round"/>
<path d="M21.1477 21.8035L21 39.3253" stroke="white" stroke-width="3" stroke-linecap="round" stroke-linejoin="round"/>
</svg>
